<svg width="18" height="22" viewBox="0 0 18 22" fill="none" xmlns="http://www.w3.org/2000/svg">
<path d="M13.0605 5.66406C13.2109 5.66406 13.4437 5.68197 13.7588 5.71777C14.0811 5.74642 14.4463 5.8252 14.8545 5.9541C15.2627 6.08301 15.6781 6.29069 16.1006 6.57715C16.5231 6.86361 16.9134 7.26465 17.2715 7.78027C17.2357 7.80176 17.0996 7.89844 16.8633 8.07031C16.6341 8.24219 16.3727 8.49284 16.0791 8.82227C15.7855 9.14453 15.5277 9.55632 15.3057 10.0576C15.0908 10.5518 14.9834 11.1426 14.9834 11.8301C14.9834 12.6178 15.1195 13.2839 15.3916 13.8281C15.6709 14.3724 15.9932 14.8128 16.3584 15.1494C16.7308 15.486 17.0602 15.7331 17.3467 15.8906C17.6403 16.041 17.7979 16.1198 17.8193 16.127C17.8122 16.1556 17.7585 16.3167 17.6582 16.6104C17.5579 16.8968 17.4004 17.2692 17.1855 17.7275C16.9779 18.1787 16.7057 18.6514 16.3691 19.1455C16.0612 19.5824 15.7425 20.0013 15.4131 20.4023C15.0908 20.8034 14.7363 21.1292 14.3496 21.3799C13.9701 21.6377 13.5404 21.7666 13.0605 21.7666C12.6953 21.7666 12.3838 21.7236 12.126 21.6377C11.8682 21.5518 11.6211 21.4515 11.3848 21.3369C11.1556 21.2295 10.9014 21.1328 10.6221 21.0469C10.3428 20.9609 9.99544 20.918 9.58008 20.918C9.03581 20.918 8.58105 20.9896 8.21582 21.1328C7.85775 21.2832 7.51758 21.43 7.19531 21.5732C6.87305 21.7165 6.49349 21.7881 6.05664 21.7881C5.39062 21.7881 4.80339 21.5231 4.29492 20.9932C3.79362 20.4632 3.27799 19.8294 2.74805 19.0918C2.33984 18.5046 1.96745 17.8278 1.63086 17.0615C1.29427 16.2952 1.02572 15.4824 0.825195 14.623C0.624674 13.7637 0.524414 12.9043 0.524414 12.0449C0.524414 10.6699 0.785807 9.51335 1.30859 8.5752C1.83138 7.63704 2.50098 6.92806 3.31738 6.44824C4.13379 5.96842 4.98242 5.72852 5.86328 5.72852C6.32878 5.72852 6.76562 5.80371 7.17383 5.9541C7.58919 6.10449 7.97591 6.25846 8.33398 6.41602C8.69206 6.56641 9.0179 6.6416 9.31152 6.6416C9.59082 6.6416 9.92025 6.56283 10.2998 6.40527C10.6794 6.24056 11.0983 6.07585 11.5566 5.91113C12.0221 5.74642 12.5234 5.66406 13.0605 5.66406ZM12.3086 3.92383C11.9505 4.36068 11.4993 4.72233 10.9551 5.00879C10.418 5.29525 9.90951 5.43848 9.42969 5.43848C9.32943 5.43848 9.23275 5.42773 9.13965 5.40625C9.13249 5.3776 9.12174 5.32747 9.10742 5.25586C9.10026 5.18424 9.09668 5.10547 9.09668 5.01953C9.09668 4.47526 9.21484 3.94531 9.45117 3.42969C9.6875 2.91406 9.95964 2.48438 10.2676 2.14062C10.6471 1.68945 11.127 1.31348 11.707 1.0127C12.2943 0.711914 12.8564 0.550781 13.3936 0.529297C13.415 0.651042 13.4258 0.79069 13.4258 0.948242C13.4258 1.49967 13.3219 2.03678 13.1143 2.55957C12.9066 3.0752 12.638 3.52995 12.3086 3.92383Z" fill="black" fill-opacity="0.6"/>
</svg>
