<svg class="icon" viewBox="0 0 1024 1024" version="1.1"
    xmlns="http://www.w3.org/2000/svg" width="10" height="10">
    <path
        d="M942.08 253.952l-204.8 0L737.28 139.264 282.624 139.264l0 114.688L81.92 253.952c-45.056 0-81.92 36.864-81.92 81.92l0 466.944c0 45.056 36.864 81.92 81.92 81.92l860.16 0c45.056 0 81.92-36.864 81.92-81.92L1024 335.872C1024 290.816 987.136 253.952 942.08 253.952zM512 811.008c-135.168 0-245.76-110.592-245.76-245.76 0-135.168 110.592-245.76 245.76-245.76s245.76 110.592 245.76 245.76C757.76 704.512 647.168 811.008 512 811.008z"
        fill="#333333"></path>
    <path d="M512 569.344m-196.608 0a4.8 4.8 0 1 0 393.216 0 4.8 4.8 0 1 0-393.216 0Z"
        fill="#333333"></path>
</svg>