<svg width="24" height="24" viewBox="0 0 31 30" fill="none" xmlns="http://www.w3.org/2000/svg">
<path fill-rule="evenodd" clip-rule="evenodd" d="M25.5 15C25.5 20.5228 21.0228 25 15.5 25C9.97715 25 5.5 20.5228 5.5 15C5.5 9.47715 9.97715 5 15.5 5C21.0228 5 25.5 9.47715 25.5 15ZM28.5 15C28.5 22.1797 22.6797 28 15.5 28C13.7248 28 12.0327 27.6442 10.4912 27H4.5V21.9314C3.23314 19.9251 2.5 17.5482 2.5 15C2.5 7.8203 8.3203 2 15.5 2C22.6797 2 28.5 7.8203 28.5 15Z" fill="#B3B3B3"/>
<circle cx="10.5" cy="15" r="2" fill="#fff"/>
<circle cx="15.5" cy="15" r="2" fill="#fff"/>
<circle cx="20.5" cy="15" r="2" fill="#fff"/>
</svg>
