<svg width="24" height="24" viewBox="0 0 31 30" fill="none" xmlns="http://www.w3.org/2000/svg">
<path d="M2.81494 15C2.87441 10.6562 3.62881 7.0594 5.83457 4.91428C7.97969 2.70852 11.5765 1.95413 15.9203 1.89465C20.2642 1.95413 23.8609 2.70852 26.0061 4.91428C28.2118 7.0594 28.9662 10.6562 29.0257 15C28.9662 19.3439 28.2118 22.9406 26.0061 25.0858C23.8609 27.2915 20.2642 28.0459 15.9203 28.1054C11.5765 28.0459 7.97969 27.2915 5.83457 25.0858C3.62881 22.9406 2.87441 19.3439 2.81494 15Z" fill="#fff"/>
<path d="M13.3997 11.403L13.3997 11.403L20.5187 15.365C20.5187 15.3651 20.5188 15.3651 20.5188 15.3651C20.6934 15.4624 20.6934 15.7135 20.5188 15.8108C20.5188 15.8108 20.5187 15.8109 20.5187 15.8109L13.3997 19.7729C13.2301 19.8673 13.021 19.7447 13.021 19.5501V11.6259C13.021 11.4312 13.2301 11.3086 13.3997 11.403Z" stroke="#F9518F" stroke-width="2.25"/>
</svg>
