<svg width="24" height="24" viewBox="0 0 31 30" fill="none" xmlns="http://www.w3.org/2000/svg">
<path d="M6.35746 5.45195L6.36495 5.44466L6.37224 5.43717C8.29092 3.46424 11.6076 2.7049 15.9203 2.64472C20.233 2.7049 23.5497 3.46424 25.4684 5.43717L25.4757 5.44466L25.4832 5.45195C27.4561 7.37063 28.2154 10.6873 28.2756 15C28.2154 19.3127 27.4561 22.6294 25.4832 24.5481L25.4757 24.5554L25.4684 24.5629C23.5497 26.5358 20.233 27.2951 15.9203 27.3553C11.6076 27.2951 8.29092 26.5358 6.37224 24.5629L6.36495 24.5554L6.35746 24.5481C4.38453 22.6294 3.62519 19.3127 3.56501 15C3.62519 10.6873 4.38453 7.37063 6.35746 5.45195Z" stroke="#B3B3B3" stroke-width="2.5"/>
<path d="M13.582 11.0753L13.5821 11.0753L20.7011 15.0374C20.7011 15.0374 20.7012 15.0374 20.7012 15.0375C21.1326 15.2777 21.1326 15.8982 20.7012 16.1385C20.7012 16.1385 20.7011 16.1385 20.7011 16.1385L13.5821 20.1006C13.1624 20.3341 12.646 20.0307 12.646 19.5501V11.6259C12.646 11.1452 13.1624 10.8418 13.582 11.0753Z" stroke="#fff" stroke-width="2.25"/>
</svg>
